<?xml version="1.0" standalone="no"?>
<!DOCTYPE svg PUBLIC "-//W3C//DTD SVG 20010904//EN"
 "http://www.w3.org/TR/2001/REC-SVG-20010904/DTD/svg10.dtd">
<svg version="1.0" xmlns="http://www.w3.org/2000/svg"
 width="512.000000pt" height="512.000000pt" viewBox="0 0 512.000000 512.000000"
 preserveAspectRatio="xMidYMid meet">
<metadata>
Created by potrace 1.14, written by Peter Selinger 2001-2017
</metadata>
<g transform="translate(0.000000,512.000000) scale(0.100000,-0.100000)"
fill="#000000" stroke="none">
<path d="M2315 5109 c-800 -83 -1501 -518 -1927 -1196 -487 -774 -516 -1777
-75 -2578 200 -364 487 -676 841 -913 238 -159 600 -311 876 -366 214 -43 295
-51 530 -51 236 0 333 10 532 51 880 184 1615 842 1898 1702 92 278 125 491
125 802 0 301 -32 513 -116 775 -124 390 -330 728 -622 1024 -399 404 -893
653 -1462 737 -123 18 -478 26 -600 13z m-787 -1296 c40 -30 63 -66 69 -110
l5 -40 73 49 c89 59 165 91 267 112 95 20 163 20 253 1 140 -30 272 -111 360
-224 l47 -60 67 67 c150 152 317 225 516 226 79 1 115 -4 170 -22 196 -65 338
-190 420 -367 67 -144 66 -119 63 -1142 -3 -913 -3 -922 -24 -949 -39 -53 -71
-69 -134 -69 -63 0 -95 16 -134 69 -21 27 -21 38 -26 959 l-5 932 -29 62 c-34
74 -112 153 -183 185 -36 16 -68 22 -124 22 -68 0 -84 -4 -150 -36 -129 -64
-224 -178 -277 -332 l-27 -81 -5 -842 c-5 -830 -5 -842 -26 -869 -39 -53 -71
-69 -134 -69 -63 0 -95 16 -134 69 -21 27 -21 38 -26 924 -6 880 -6 898 -27
974 -37 131 -76 190 -155 234 -48 26 -62 29 -144 29 -84 0 -95 -3 -165 -37
-129 -64 -224 -178 -277 -332 l-27 -81 -5 -842 c-5 -830 -5 -842 -26 -869 -39
-53 -71 -69 -134 -69 -63 0 -95 16 -134 69 -21 27 -21 34 -24 1179 -1 634 0
1166 3 1184 7 40 49 91 90 109 40 19 120 12 153 -13z"/>
</g>
</svg>
