<svg id="mute" viewBox="0 0 56 57" xmlns="http://www.w3.org/2000/svg">
	<title>Speaker 3</title>
	<g id="Page-1" stroke="none" stroke-width="1" fill="none" fill-rule="evenodd">
		<g id="Speaker-3" fill="#ffffff">
			<path
				d="M27.1,6.4 L27.1,50.2 L10.6,37.2 L9.9,36.4 L8.9,36.4 L3,36.4 L3,20.4 L8.9,20.4 L9.9,20.4 L10.6,19.7 L27,6.5 L27.1,6.4 Z M30.1,0.3 L9,17.4 L0.1,17.4 L0.1,39.4 L9,39.4 L30.1,56.3 L30.1,0.3 L30.1,0.3 Z"
				id="Shape"></path>
			<g id="Group" transform="translate(35.000000, 18.000000)">
				<rect id="Rectangle-path"
					transform="translate(10.543575, 10.257835) rotate(45.000000) translate(-10.543575, -10.257835) "
					x="-2.20630273" y="8.75784939" width="25.4997555" height="2.99997123"></rect>
				<rect id="Rectangle-path"
					transform="translate(10.614285, 10.257835) rotate(45.000000) translate(-10.614285, -10.257835) "
					x="9.11429939" y="-2.49204273" width="2.99997123" height="25.4997555"></rect>
			</g>
		</g>
	</g>
</svg>